<?xml version="1.0" encoding="utf-8"?>
<!-- Generator: Adobe Illustrator 24.1.0, SVG Export Plug-In . SVG Version: 6.00 Build 0)  -->
<svg version="1.1" id="Layer_1" xmlns="http://www.w3.org/2000/svg" xmlns:xlink="http://www.w3.org/1999/xlink" x="0px" y="0px"
	 viewBox="0 0 219.47 208.93" style="enable-background:new 0 0 219.47 208.93;" xml:space="preserve">
<style type="text/css">
	.st0{fill:#FF3300;}
	.st1{fill:#FFFFFF;}
	.st2{font-family:'Montserrat-ExtraBold';}
	.st3{font-size:39.9959px;}
	.st4{font-size:34.9864px;}
	.st5{font-family:'Montserrat-Regular';}
	.st6{font-size:12.018px;}
	.st7{letter-spacing:4.59;}
</style>
<path class="st0" d="M176.8,206.64H42.08c-20.55,0-37.2-16.66-37.2-37.2V41.2C4.88,20.66,21.53,4,42.08,4H176.8
	C197.34,4,214,20.66,214,41.2v128.24C214,189.98,197.34,206.64,176.8,206.64z"/>
<g>
	<g>
		<g>
			<g>
				<g>
					<path class="st1" d="M168.66,56.79l-14.5-25.32c-2.01-3.52-5.76-5.59-10.13-5.59h-61.8h-2.94h-13.3c-3.53,0-6.6,2.36-7.54,5.72
						h11.45c0.78,0,1.47,0.38,1.91,0.97c0.3,0.4,0.49,0.9,0.49,1.43c0,0.84-0.43,1.57-1.09,2c-0.38,0.25-0.83,0.4-1.31,0.4H57.4
						h-0.17c-1.19,0-2.16,0.97-2.16,2.16c0,1.07,0.78,1.95,1.8,2.12h79.16c1.31-1.94,3.55-3.28,5.87-3.28h5.65
						c4.86,0,9.08,2.34,11.29,6.27l0.02,0.05l4.44,10.4c0.25,0.58,0.16,1.27-0.22,1.86c-0.43,0.65-1.15,1.05-1.87,1.05h-27.66
						l-4.1,23.55h7.84c1.43-6.02,7.26-10.79,13.38-10.79c6.12,0,10.29,4.77,9.62,10.79h15.02C175.3,80.58,183.91,62.18,168.66,56.79
						z"/>
					<path class="st1" d="M134.93,43.33c0.11-0.63,0.32-1.24,0.6-1.81H74.67c0.38,0.43,0.62,0.98,0.62,1.6c0,1.32-1.08,2.4-2.4,2.4
						h-3.34H54.84c-0.8,0-1.45,0.65-1.45,1.45c0,0.8,0.64,1.44,1.43,1.45l0,0h0.02h7.83c1.32,0,2.4,1.08,2.4,2.4
						c0,1.32-1.08,2.4-2.4,2.4h-8.89l0,0.02c-0.08,0-0.15-0.01-0.23-0.01c-2.36,0-4.27,1.91-4.27,4.26c0,2.36,1.91,4.27,4.27,4.27
						h11.63c0.54,0,1.04,0.19,1.45,0.5c0.58,0.44,0.95,1.13,0.95,1.9c0,1.07-0.71,1.97-1.68,2.28c-0.23,0.07-0.47,0.12-0.72,0.12
						H50.56c-0.58,0-1.06,0.47-1.06,1.06c0,0.56,0.43,1.01,0.97,1.05l0,0.01h0.09h4.49c1.32,0,2.4,1.08,2.4,2.4
						c0,1.32-1.08,2.4-2.4,2.4h-6.24c-1.96,0-3.55,1.59-3.55,3.55c0,1.96,1.59,3.55,3.55,3.55c0.07,0,0.14-0.01,0.21-0.01
						c0.03,0,0.06,0.01,0.09,0.01h19.85h5.3c1.43-6.02,7.26-10.79,13.38-10.79c6.12,0,10.29,4.77,9.62,10.79h31.67l-0.48-0.08
						L134.93,43.33z"/>
				</g>
				<g>
					<path class="st1" d="M87.22,72.24c-5.01,0-9.78,4.06-10.66,9.08c-0.87,5.01,2.48,9.08,7.5,9.08c5.01,0,9.78-4.06,10.66-9.08
						C95.59,76.31,92.23,72.24,87.22,72.24z M90.91,81.32c-0.51,2.91-3.28,5.27-6.19,5.27c-2.91,0-4.86-2.36-4.36-5.27
						c0.51-2.91,3.28-5.27,6.19-5.27C89.47,76.05,91.42,78.41,90.91,81.32z"/>
					<path class="st1" d="M86.23,77.89c-1.9,0-3.7,1.54-4.03,3.43c-0.33,1.9,0.94,3.43,2.84,3.43c1.9,0,3.7-1.54,4.03-3.43
						C89.4,79.42,88.13,77.89,86.23,77.89z"/>
					<path class="st1" d="M150.24,72.24c-5.01,0-9.78,4.06-10.66,9.08c-0.87,5.01,2.48,9.08,7.5,9.08c5.01,0,9.78-4.06,10.66-9.08
						C158.6,76.31,155.25,72.24,150.24,72.24z M153.93,81.32c-0.51,2.91-3.28,5.27-6.19,5.27c-2.91,0-4.86-2.36-4.36-5.27
						c0.51-2.91,3.28-5.27,6.19-5.27C152.49,76.05,154.44,78.41,153.93,81.32z"/>
					<path class="st1" d="M149.25,77.89c-1.9,0-3.7,1.54-4.03,3.43c-0.33,1.9,0.94,3.43,2.84,3.43c1.9,0,3.7-1.54,4.03-3.43
						C152.42,79.42,151.15,77.89,149.25,77.89z"/>
					<path class="st1" d="M42.83,48.13h6.11c0.72,0,1.31-0.59,1.31-1.31c0-0.72-0.59-1.31-1.31-1.31h-6.11
						c-0.72,0-1.31,0.59-1.31,1.31C41.52,47.55,42.11,48.13,42.83,48.13z"/>
					<path class="st1" d="M39.88,68.93h6.11c0.72,0,1.31-0.59,1.31-1.31c0-0.72-0.59-1.31-1.31-1.31h-6.11
						c-0.72,0-1.31,0.59-1.31,1.31C38.57,68.34,39.16,68.93,39.88,68.93z"/>
					<path class="st1" d="M49.3,30.53h6.11c0.72,0,1.31-0.59,1.31-1.31c0-0.72-0.59-1.31-1.31-1.31H49.3
						c-0.72,0-1.31,0.59-1.31,1.31C47.99,29.94,48.58,30.53,49.3,30.53z"/>
					<path class="st1" d="M40.22,73.51H34.1c-0.72,0-1.31,0.59-1.31,1.31c0,0.72,0.59,1.31,1.31,1.31h6.11
						c0.72,0,1.31-0.59,1.31-1.31C41.52,74.1,40.94,73.51,40.22,73.51z"/>
					<path class="st1" d="M161.2,56.05c0.4,0,0.81-0.23,1.06-0.61c0.21-0.31,0.26-0.65,0.14-0.93l-4.43-10.38
						c-2.04-3.6-5.93-5.75-10.42-5.75h-5.65c-2.82,0-5.51,2.29-6,5.11l-2.19,12.55h4.26c-0.57-0.47-0.86-1.22-0.71-2.09l1.88-10.79
						c0.29-1.69,1.91-3.07,3.6-3.07h4.92c3.55,0,6.5,1.91,7.72,5l4.08,10.39c0.07,0.18,0.05,0.38-0.04,0.56H161.2z"/>
				</g>
				<g>
					<path class="st0" d="M122.49,53.52l1.22-6.37h-9.27H85.36c0,0-1.35,6.09,8.06,6.37H122.49z"/>
					<path class="st0" d="M100.9,62.79c0.43,1.67,2.06,6,7.62,6h11.33l1.15-6H100.9z"/>
					<path class="st0" d="M121.13,61.35l1.23-6.43H94.1c0.09,1.73,0.87,6.34,6.51,6.43H121.13z"/>
				</g>
			</g>
		</g>
		<path class="st1" d="M169.91,56.27c10.03,0.86,16.45,3.31,17.32,7.31c2.02,9.35-27.14,23.59-65.14,31.81
			c-38,8.22-70.44,7.3-72.46-2.04c-0.86-3.99,3.97-8.88,12.75-13.81c-13.22,6.42-20.85,13.01-19.72,18.23
			c2.24,10.38,38.26,11.39,80.44,2.27c42.18-9.12,74.56-24.93,72.31-35.31C194.27,59.51,184.61,56.66,169.91,56.27z"/>
	</g>
	<g>
		<text transform="matrix(1 0 0 1 23.3641 170.8313)" class="st1 st2 st3">Le llego!</text>
	</g>
	<g>
		<text transform="matrix(0.9902 0 0 1 52.0243 135.3304)" class="st1 st2 st4">Ya!!</text>
	</g>
	<text transform="matrix(0.871 0 0 1 32.7977 191.6214)" class="st1 st5 st6 st7">Servicios Express</text>
</g>
</svg>
