<?xml version="1.0" encoding="utf-8"?>
<!-- Generator: Adobe Illustrator 24.1.0, SVG Export Plug-In . SVG Version: 6.00 Build 0)  -->
<svg version="1.1" id="Layer_1" xmlns="http://www.w3.org/2000/svg" xmlns:xlink="http://www.w3.org/1999/xlink" x="0px" y="0px"
	 viewBox="0 0 219.47 208.93" style="enable-background:new 0 0 219.47 208.93;" xml:space="preserve">
<style type="text/css">
	.st0{fill:#FF3300;}
	.st1{fill:#FFFFFF;}
	.st2{font-family:'Montserrat-ExtraBold';}
	.st3{font-size:41.8585px;}
	.st4{font-size:36.6158px;}
	.st5{font-family:'Montserrat-Regular';}
	.st6{font-size:12.5777px;}
	.st7{letter-spacing:4.59;}
</style>
<g>
	<g>
		<g>
			<g>
				<g>
					<path class="st0" d="M168.85,48.85l-15.17-26.5c-2.11-3.68-6.03-5.85-10.6-5.85H78.39h-3.08H61.39c-3.69,0-6.9,2.47-7.89,5.99
						h11.98c0.82,0,1.54,0.4,2,1.01C67.8,23.92,68,24.43,68,25c0,0.88-0.46,1.65-1.14,2.1c-0.4,0.26-0.87,0.41-1.37,0.41H52.4h-0.18
						c-1.25,0-2.26,1.01-2.26,2.26c0,1.12,0.81,2.04,1.88,2.22h82.85c1.38-2.03,3.72-3.43,6.14-3.43h5.91
						c5.09,0,9.51,2.45,11.82,6.56l0.02,0.05l4.64,10.89c0.26,0.61,0.17,1.33-0.23,1.95c-0.45,0.68-1.2,1.1-1.96,1.1h-28.95
						l-4.29,24.65h8.21c1.5-6.31,7.6-11.3,14.01-11.3c6.41,0,10.77,4.99,10.07,11.3h15.72C175.8,73.75,184.81,54.5,168.85,48.85z"/>
					<path class="st0" d="M133.55,34.77c0.12-0.66,0.33-1.3,0.63-1.89h-63.7c0.4,0.45,0.65,1.03,0.65,1.67
						c0,1.38-1.13,2.51-2.51,2.51h-3.5H49.73c-0.84,0-1.52,0.68-1.52,1.52c0,0.83,0.67,1.51,1.5,1.52l0,0h0.03h8.2
						c1.38,0,2.51,1.13,2.51,2.51c0,1.38-1.13,2.51-2.51,2.51h-9.3l0,0.02c-0.08,0-0.16-0.01-0.24-0.01c-2.47,0-4.46,2-4.46,4.46
						c0,2.47,2,4.46,4.46,4.46h12.17c0.57,0,1.09,0.2,1.51,0.52c0.6,0.46,1,1.18,1,1.99c0,1.12-0.75,2.06-1.76,2.38
						c-0.24,0.08-0.49,0.13-0.75,0.13H45.25c-0.61,0-1.11,0.5-1.11,1.11c0,0.58,0.45,1.05,1.02,1.1l0,0.01h0.09h4.7
						c1.38,0,2.51,1.13,2.51,2.51c0,1.38-1.13,2.51-2.51,2.51h-6.53c-2.05,0-3.71,1.66-3.71,3.71c0,2.05,1.66,3.71,3.71,3.71
						c0.07,0,0.15-0.01,0.22-0.01c0.03,0,0.06,0.01,0.1,0.01h20.77h5.55c1.5-6.31,7.6-11.3,14.01-11.3c6.41,0,10.77,4.99,10.07,11.3
						h33.15l-0.51-0.09L133.55,34.77z"/>
				</g>
				<g>
					<path class="st0" d="M83.61,65.02c-5.25,0-10.24,4.25-11.15,9.5c-0.91,5.25,2.6,9.5,7.84,9.5c5.25,0,10.24-4.25,11.15-9.5
						C92.37,69.28,88.86,65.02,83.61,65.02z M87.48,74.52c-0.53,3.05-3.43,5.52-6.48,5.52c-3.05,0-5.09-2.47-4.56-5.52
						c0.53-3.05,3.43-5.52,6.48-5.52C85.97,69,88.01,71.48,87.48,74.52z"/>
					<path class="st0" d="M82.59,70.93c-1.99,0-3.87,1.61-4.22,3.59c-0.35,1.99,0.98,3.59,2.97,3.59s3.87-1.61,4.22-3.59
						C85.9,72.54,84.57,70.93,82.59,70.93z"/>
					<path class="st0" d="M149.57,65.02c-5.25,0-10.24,4.25-11.15,9.5c-0.91,5.25,2.6,9.5,7.84,9.5c5.25,0,10.24-4.25,11.15-9.5
						C158.33,69.28,154.81,65.02,149.57,65.02z M153.43,74.52c-0.53,3.05-3.43,5.52-6.48,5.52c-3.05,0-5.09-2.47-4.56-5.52
						c0.53-3.05,3.43-5.52,6.48-5.52C151.92,69,153.96,71.48,153.43,74.52z"/>
					<path class="st0" d="M148.54,70.93c-1.99,0-3.87,1.61-4.22,3.59c-0.35,1.99,0.98,3.59,2.97,3.59s3.87-1.61,4.22-3.59
						C151.85,72.54,150.52,70.93,148.54,70.93z"/>
					<path class="st0" d="M37.16,39.79h6.4c0.75,0,1.37-0.62,1.37-1.37c0-0.75-0.62-1.37-1.37-1.37h-6.4
						c-0.75,0-1.37,0.62-1.37,1.37C35.79,39.18,36.41,39.79,37.16,39.79z"/>
					<path class="st0" d="M34.07,61.56h6.4c0.75,0,1.37-0.62,1.37-1.37c0-0.75-0.62-1.37-1.37-1.37h-6.4
						c-0.75,0-1.37,0.62-1.37,1.37C32.7,60.94,33.32,61.56,34.07,61.56z"/>
					<path class="st0" d="M43.93,21.37h6.4c0.75,0,1.37-0.62,1.37-1.37c0-0.75-0.62-1.37-1.37-1.37h-6.4
						c-0.75,0-1.37,0.62-1.37,1.37C42.56,20.75,43.18,21.37,43.93,21.37z"/>
					<path class="st0" d="M34.43,66.35h-6.4c-0.75,0-1.37,0.62-1.37,1.37c0,0.75,0.62,1.37,1.37,1.37h6.4
						c0.75,0,1.37-0.62,1.37-1.37C35.79,66.97,35.18,66.35,34.43,66.35z"/>
					<path class="st0" d="M161.04,48.08c0.42,0,0.85-0.24,1.1-0.64c0.22-0.33,0.27-0.68,0.14-0.98l-4.63-10.86
						c-2.13-3.77-6.21-6.01-10.91-6.01h-5.91c-2.95,0-5.76,2.4-6.28,5.35l-2.29,13.13h4.46c-0.59-0.49-0.9-1.28-0.74-2.18l1.97-11.3
						c0.31-1.77,2-3.21,3.77-3.21h5.15c3.72,0,6.8,2,8.07,5.23l4.27,10.87c0.08,0.19,0.05,0.4-0.04,0.58H161.04z"/>
				</g>
				<g>
					<path class="st1" d="M120.53,45.43l1.28-6.67h-9.7H81.67c0,0-1.41,6.38,8.44,6.67H120.53z"/>
					<path class="st1" d="M97.94,55.13c0.45,1.75,2.16,6.28,7.98,6.28h11.85l1.2-6.28H97.94z"/>
					<path class="st1" d="M119.11,53.63l1.29-6.73H90.81c0.1,1.81,0.91,6.64,6.82,6.73H119.11z"/>
				</g>
			</g>
		</g>
		<path class="st0" d="M170.16,48.31c10.5,0.9,17.22,3.47,18.12,7.65c2.12,9.78-28.41,24.69-68.18,33.29
			c-39.77,8.6-73.72,7.64-75.84-2.14c-0.9-4.18,4.15-9.29,13.34-14.45c-13.84,6.72-21.82,13.62-20.64,19.08
			c2.35,10.86,40.04,11.92,84.19,2.37c44.15-9.55,78.03-26.09,75.68-36.95C195.66,51.69,185.54,48.71,170.16,48.31z"/>
	</g>
	<g>
		<text transform="matrix(1 0 0 1 16.7891 168.2059)" class="st0 st2 st3">Le llego!</text>
	</g>
	<g>
		<text transform="matrix(0.9902 0 0 1 46.7832 131.0496)" class="st0 st2 st4">Ya!!</text>
	</g>
	<text transform="matrix(0.871 0 0 1 26.6622 189.9627)" class="st0 st5 st6 st7">Servicios Express</text>
</g>
</svg>
